<svg xmlns="http://www.w3.org/2000/svg" width="132" height="132" viewBox="0 0 132 132" fill="none"><circle cx="66" cy="66" r="64.5" fill="#083368" stroke="white" stroke-width="3"></circle><path d="M51.264 54.464C51.4347 49.8987 52.928 46.3787 55.744 43.904C58.56 41.4293 62.3787 40.192 67.2 40.192C70.4 40.192 73.1307 40.7467 75.392 41.856C77.696 42.9653 79.424 44.48 80.576 46.4C81.7707 48.32 82.368 50.4747 82.368 52.864C82.368 55.68 81.664 57.984 80.256 59.776C78.848 61.5253 77.2053 62.72 75.328 63.36V63.616C77.76 64.4267 79.68 65.7707 81.088 67.648C82.496 69.5253 83.2 71.936 83.2 74.88C83.2 77.5253 82.5813 79.872 81.344 81.92C80.1493 83.9253 78.3787 85.504 76.032 86.656C73.728 87.808 70.976 88.384 67.776 88.384C62.656 88.384 58.56 87.1253 55.488 84.608C52.4587 82.0907 50.8587 78.2933 50.688 73.216H61.312C61.3547 75.0933 61.888 76.5867 62.912 77.696C63.936 78.7627 65.4293 79.296 67.392 79.296C69.056 79.296 70.336 78.8267 71.232 77.888C72.1707 76.9067 72.64 75.6267 72.64 74.048C72.64 72 71.9787 70.528 70.656 69.632C69.376 68.6933 67.3067 68.224 64.448 68.224H62.4V59.328H64.448C66.624 59.328 68.3733 58.9653 69.696 58.24C71.0613 57.472 71.744 56.128 71.744 54.208C71.744 52.672 71.3173 51.4773 70.464 50.624C69.6107 49.7707 68.4373 49.344 66.944 49.344C65.3227 49.344 64.1067 49.8347 63.296 50.816C62.528 51.7973 62.08 53.0133 61.952 54.464H51.264Z" fill="white"></path></svg>