<svg xmlns="http://www.w3.org/2000/svg" width="132" height="132" viewBox="0 0 132 132" fill="none"><circle cx="66" cy="66" r="64.5" fill="#083368" stroke="white" stroke-width="3"></circle><path d="M79.776 49.816H59.808V58.648C60.6613 57.7093 61.856 56.9413 63.392 56.344C64.928 55.7467 66.592 55.448 68.384 55.448C71.584 55.448 74.2293 56.1733 76.32 57.624C78.4533 59.0747 80.0107 60.952 80.992 63.256C81.9733 65.56 82.464 68.056 82.464 70.744C82.464 75.736 81.056 79.704 78.24 82.648C75.424 85.5493 71.456 87 66.336 87C62.9227 87 59.9573 86.424 57.44 85.272C54.9227 84.0773 52.9813 82.4347 51.616 80.344C50.2507 78.2533 49.504 75.8427 49.376 73.112H60.064C60.32 74.4347 60.9387 75.544 61.92 76.44C62.9013 77.2933 64.2453 77.72 65.952 77.72C67.9573 77.72 69.4507 77.08 70.432 75.8C71.4133 74.52 71.904 72.8133 71.904 70.68C71.904 68.5893 71.392 66.9893 70.368 65.88C69.344 64.7707 67.8507 64.216 65.888 64.216C64.4373 64.216 63.2427 64.5787 62.304 65.304C61.3653 65.9867 60.7467 66.904 60.448 68.056H49.888V40.216H79.776V49.816Z" fill="white"></path></svg>