<svg xmlns="http://www.w3.org/2000/svg" width="132" height="132" viewBox="0 0 132 132" fill="none"><circle cx="66" cy="66" r="64.5" fill="#083368" stroke="white" stroke-width="3"></circle><path d="M50.496 79.232C51.9467 78.08 52.608 77.5467 52.48 77.632C56.6613 74.176 59.9467 71.3387 62.336 69.12C64.768 66.9013 66.816 64.576 68.48 62.144C70.144 59.712 70.976 57.344 70.976 55.04C70.976 53.2907 70.5707 51.9253 69.76 50.944C68.9493 49.9627 67.7333 49.472 66.112 49.472C64.4907 49.472 63.2107 50.0907 62.272 51.328C61.376 52.5227 60.928 54.2293 60.928 56.448H50.368C50.4533 52.8213 51.2213 49.792 52.672 47.36C54.1653 44.928 56.1067 43.136 58.496 41.984C60.928 40.832 63.616 40.256 66.56 40.256C71.6373 40.256 75.456 41.5573 78.016 44.16C80.6187 46.7627 81.92 50.1547 81.92 54.336C81.92 58.9013 80.3627 63.1467 77.248 67.072C74.1333 70.9547 70.1653 74.752 65.344 78.464H82.624V87.36H50.496V79.232Z" fill="white"></path></svg>